# Blender v2.78 (sub 0) OBJ File: 'CHAHIN_ARROW.blend'
# www.blender.org
mtllib CHAHIN_ARROW.mtl
o ARROW_Cube.033
v -0.778311 -0.017261 0.017262
v -0.778311 0.017263 0.017262
v -0.778311 -0.017261 -0.017262
v -0.778311 0.017263 -0.017262
v 1.345532 0.000001 0.000000
v 1.029025 -0.017261 -0.017262
v 1.029025 0.017263 -0.017262
v 1.029025 -0.017261 0.017262
v 1.029025 0.017263 0.017262
v 1.187278 0.017263 -0.017262
v 1.187278 -0.017261 0.017262
v 1.187278 -0.017261 -0.017262
v 1.187278 0.017263 0.017262
v 1.187278 0.017263 -0.070081
v 1.187278 -0.017261 0.070081
v 1.187278 -0.017261 -0.070081
v 1.187278 0.017263 0.070081
v -0.749475 -0.010205 0.017262
v -0.749475 0.010207 0.017262
v -0.749475 -0.010205 -0.017262
v -0.749475 0.010207 -0.017262
v -0.620432 -0.010205 -0.017262
v -0.620432 0.010207 -0.017262
v -0.620432 -0.010205 0.017262
v -0.620432 0.010207 0.017262
v -0.817823 -0.010205 0.119071
v -0.817823 0.010207 0.119071
v -0.817823 0.010207 -0.119071
v -0.817823 -0.010205 -0.119071
v -0.773922 -0.010205 -0.119071
v -0.773922 0.010207 0.119071
v -0.773922 0.010207 -0.119071
v -0.773922 -0.010205 0.119071
vt 0.4129 0.2500
vt 0.1767 0.2500
vt 0.1767 0.1163
vt 0.4129 0.1163
vt 0.6140 0.3837
vt 0.6140 0.2500
vt 0.8150 0.2500
vt 0.8150 0.3837
vt 0.2298 0.8117
vt 0.1971 0.7875
vt 0.2298 0.7633
vt 0.8150 0.2500
vt 0.6140 0.2500
vt 0.6140 0.1163
vt 0.8150 0.1163
vt 0.2347 0.8117
vt 0.2298 0.8117
vt 0.2298 0.7633
vt 0.2347 0.7633
vt 0.1767 0.2500
vt 0.3777 0.2500
vt 0.3777 0.3837
vt 0.1767 0.3837
vt 0.2395 0.8117
vt 0.2395 0.7633
vt 0.2444 0.7633
vt 0.2444 0.8117
vt 0.4129 0.2500
vt 0.4129 0.1163
vt 0.6140 0.1163
vt 0.6140 0.2500
vt 0.2298 0.8856
vt 0.1644 0.8117
vt 0.1644 0.7633
vt 0.2347 0.7633
vt 0.2395 0.7633
vt 0.2347 0.8117
vt 0.2444 0.8117
vt 0.2444 0.7633
vt 0.2493 0.7633
vt 0.2493 0.8117
vt 0.1644 0.8856
vt 0.1644 0.6894
vt 0.2298 0.6894
vt 0.3606 0.7633
vt 0.2952 0.7633
vt 0.2952 0.6894
vt 0.3606 0.6894
vt 0.2298 0.6894
vt 0.2952 0.6894
vt 0.2952 0.7633
vt 0.2298 0.7633
vt 0.9420 0.7352
vt 0.9338 0.7352
vt 0.9338 0.6633
vt 0.9420 0.6633
vt 0.9420 0.6633
vt 0.9338 0.6633
vt 0.9338 0.5913
vt 0.9420 0.5913
vt 0.9338 0.8072
vt 0.9338 0.7352
vt 0.9366 0.7352
vt 0.9366 0.8072
vt 0.9338 0.8791
vt 0.9338 0.8072
vt 0.9366 0.8072
vt 0.9366 0.8791
vt 0.7421 0.5913
vt 0.8216 0.5913
vt 0.8216 0.9502
vt 0.7421 0.9502
vt 0.6625 0.5913
vt 0.7421 0.5913
vt 0.7421 0.9502
vt 0.6625 0.9502
vt 0.9011 0.5915
vt 0.9093 0.5913
vt 0.9093 0.9503
vt 0.9065 0.9503
vt 0.9338 0.9503
vt 0.9256 0.9501
vt 0.9310 0.5913
vt 0.9338 0.5914
vt 0.9011 0.9502
vt 0.8216 0.9502
vt 0.8216 0.5913
vt 0.9011 0.5913
vt 0.6625 0.9502
vt 0.5830 0.9502
vt 0.5830 0.5913
vt 0.6625 0.5913
vt 0.9093 0.5915
vt 0.9175 0.5913
vt 0.9175 0.9503
vt 0.9147 0.9503
vt 0.9256 0.9503
vt 0.9175 0.9501
vt 0.9229 0.5913
vt 0.9256 0.5914
vn -1.0000 0.0000 0.0000
vn 0.0000 0.0000 1.0000
vn 0.1084 -0.9941 0.0000
vn 0.0000 1.0000 0.0000
vn 0.0000 -1.0000 0.0000
vn 0.0000 0.0000 -1.0000
vn 0.1084 0.9941 0.0000
vn 0.4049 0.0000 -0.9144
vn 0.4049 0.0000 0.9144
vn -0.8303 0.0000 -0.5574
vn 0.5528 0.0000 -0.8333
vn -0.8303 0.0000 0.5574
vn 0.5528 0.0000 0.8333
usemtl Material.001
s off
f 1/1/1 2/2/1 4/3/1 3/4/1
f 8/5/2 9/6/2 2/7/2 1/8/2
f 12/9/3 5/10/3 11/11/3
f 7/12/4 4/13/4 2/14/4 9/15/4
f 10/16/4 7/17/4 9/18/4 13/19/4
f 3/20/5 6/21/5 8/22/5 1/23/5
f 11/24/2 13/25/2 9/26/2 8/27/2
f 3/28/6 4/29/6 7/30/6 6/31/6
f 5/10/3 12/9/3 16/32/3
f 5/10/7 10/33/7 13/34/7
f 6/35/5 12/36/5 11/24/5 8/37/5
f 6/38/6 7/39/6 10/40/6 12/41/6
f 16/32/8 14/42/8 5/10/8
f 5/10/9 17/43/9 15/44/9
f 12/45/1 10/46/1 14/47/1 16/48/1
f 10/33/7 5/10/7 14/42/7
f 5/10/7 13/34/7 17/43/7
f 11/11/3 5/10/3 15/44/3
f 13/49/1 11/50/1 15/51/1 17/52/1
f 24/53/6 18/54/6 19/55/6 25/56/6
f 20/57/2 22/58/2 23/59/2 21/60/2
f 33/61/2 31/62/2 27/63/2 26/64/2
f 29/65/6 28/66/6 32/67/6 30/68/6
f 19/69/10 18/70/10 26/71/10 27/72/10
f 23/73/11 22/74/11 30/75/11 32/76/11
f 18/77/5 24/78/5 33/79/5 26/80/5
f 25/81/4 19/82/4 27/83/4 31/84/4
f 20/85/12 21/86/12 28/87/12 29/88/12
f 24/89/13 25/90/13 31/91/13 33/92/13
f 21/93/4 23/94/4 32/95/4 28/96/4
f 22/97/5 20/98/5 29/99/5 30/100/5
